<?xml version="1.0" encoding="UTF-8"?>
<!DOCTYPE svg PUBLIC "-//W3C//DTD SVG 1.1//EN" "http://www.w3.org/Graphics/SVG/1.1/DTD/svg11.dtd">
<!-- Creator: CorelDRAW 2017 -->
<svg xmlns="http://www.w3.org/2000/svg" xml:space="preserve" width="420mm" height="297mm" version="1.1" shape-rendering="geometricPrecision" text-rendering="geometricPrecision" image-rendering="optimizeQuality" fill-rule="evenodd" clip-rule="evenodd"
viewBox="0 0 42000 29700"
 xmlns:xlink="http://www.w3.org/1999/xlink"
 xmlns:dc="http://purl.org/dc/elements/1.1/"
 xmlns:cc="http://creativecommons.org/ns#"
 xmlns:rdf="http://www.w3.org/1999/02/22-rdf-syntax-ns#"
 xmlns:svg="http://www.w3.org/2000/svg"
 xmlns:sodipodi="http://sodipodi.sourceforge.net/DTD/sodipodi-0.dtd"
 xmlns:inkscape="http://www.inkscape.org/namespaces/inkscape"
 sodipodi:docname="itau-bba-logo.svg"
 inkscape:version="0.92.4 (5da689c313, 2019-01-14)">
 <g id="Camada_x0020_1">
  <metadata id="CorelCorpID_0Corel-Layer"/>
  <sodipodi:namedview pagecolor="#ffffff" bordercolor="#666666" borderopacity="1" objecttolerance="10" gridtolerance="10" guidetolerance="10" inkscape:pageopacity="0" inkscape:pageshadow="2" inkscape:window-width="1600" inkscape:window-height="837" id="namedview30" showgrid="false" inkscape:zoom="0.10334158" inkscape:cx="656.13108" inkscape:cy="1906.2359" inkscape:window-x="-8" inkscape:window-y="-8" inkscape:window-maximized="1" inkscape:current-layer="svg28"/>
  <g id="ajuda">
   <g id="ibba-02">
    <path id="Shape" fill="#004388" fill-rule="nonzero" d="M24472 18789l598 0c854,0 1495,259 1495,950 0,734 -683,993 -1409,993 -299,0 -512,0 -683,-43l0 -1899zm0 -2676c128,-43 342,-43 769,-43 769,0 1196,216 1196,777 0,475 -427,820 -1367,820l-555 0 0 -1554 -43 0zm-1580 5698c342,43 939,86 1794,86 1409,0 2306,-216 2818,-604 470,-345 769,-863 769,-1511 0,-907 -641,-1511 -1409,-1684l0 -43c811,-302 1153,-863 1153,-1468 0,-691 -384,-1166 -897,-1381 -512,-259 -1068,-345 -2092,-345 -811,0 -1751,86 -2135,173l0 6777z" inkscape:connector-curvature="0"/>
    <path id="path7" fill="#004388" fill-rule="nonzero" d="M30723 18746l598 0c854,0 1495,259 1495,950 0,734 -683,993 -1409,993 -299,0 -512,0 -683,-43l0 -1899zm0 -2676c128,-43 342,-43 769,-43 726,0 1196,216 1196,777 0,475 -427,820 -1367,820l-555 0 0 -1554 -43 0zm-1623 5698c342,43 982,130 1794,130 1409,0 2306,-216 2818,-604 470,-345 769,-863 769,-1511 0,-907 -641,-1511 -1409,-1684l0 -43c811,-302 1153,-863 1153,-1468 0,-691 -384,-1166 -897,-1381 -512,-259 -1068,-345 -2092,-345 -811,0 -1751,86 -2135,173l0 6734z" inkscape:connector-curvature="0"/>
    <path id="path9" fill="#004388" fill-rule="nonzero" d="M37462 18800l487 -1505c133,-398 221,-885 354,-1283l0 0c133,398 266,841 398,1283l487 1505 -1726 0zm1991 1239l620 1859 1859 0 -2478 -7036 -2213 0 -2345 7036 1770 0 575 -1859 2213 0z" inkscape:connector-curvature="0"/>
    <path id="Path" fill="#004388" d="M3661 4514l14043 0c1943,0 3533,1586 3533,3525l0 14058c0,1939 -1590,3525 -3533,3525l-14043 0c-1943,0 -3533,-1586 -3533,-3525l0 -14058c0,-1939 1590,-3525 3533,-3525z" inkscape:connector-curvature="0"/>
    <rect id="Rectangle" fill="#FAEA27" x="1784" y="14861" width="1656" height="7036"/>
    <g id="Group">
     <path id="path13" fill="#FAEA27" fill-rule="nonzero" d="M11672 19872c0,87 0,174 -45,261 0,0 0,44 0,44 0,0 0,0 0,44 -135,349 -539,654 -1034,654 -449,0 -764,-218 -764,-654 0,-479 449,-741 1078,-828 135,-44 315,-44 494,-44 90,0 225,0 315,0l0 523 -45 0zm-944 -3442c-1034,0 -1797,261 -2202,479l315 1046c360,-218 1034,-436 1618,-436 989,0 1168,479 1168,741l0 44c-2157,0 -3505,654 -3505,2004 0,784 629,1612 1842,1612 719,0 1303,-261 1663,-654l0 0 180 523 1348 0 0 -3093c45,-1220 -584,-2266 -2427,-2266z" inkscape:connector-curvature="0"/>
     <path id="path15" fill="#FAEA27" d="M17829 16604l0 3050c0,131 0,218 -45,349 -135,305 -449,654 -989,654 -674,0 -989,-479 -989,-1307l0 -2745 -1618 0 0 3050c0,392 45,741 135,1046 90,305 225,523 404,697 180,174 404,305 629,392 225,87 494,131 809,131 270,0 494,-44 674,-87 180,-44 360,-131 494,-218 135,-87 270,-174 360,-261 90,-87 180,-174 225,-261l225 741 1303 0 0 -5228 -1618 0z" inkscape:connector-curvature="0"/>
     <path id="path17" fill="#FAEA27" d="M4842 14861l0 1743 -764 0 0 1176 764 0 0 2135c0,697 135,1220 449,1568 270,261 719,479 1303,479 494,0 674,-87 899,-174l0 -1220c-45,0 -180,44 -360,44 -584,0 -719,-349 -719,-1002l0 -1830 1034 0 0 -1176 -1034 0 0 -1743 -1573 0z" inkscape:connector-curvature="0"/>
    </g>
    <polygon id="polygon20" fill="#FAEA27" points="16815,14861 15856,16517 16989,16517 18339,14861 "/>
   </g>
  </g>
 </g>
</svg>
